{"title":"Love Child - S03E02","uid":15116577,"size":384097054,"categoryP":"video","categoryS":"tv_shows","magnet":"?xt=urn:btih:5b16c03120024439d196b36fabe5f037d532cf56&amp;dn=Love+Child+-+S03E02&amp;tr=udp%3A%2F%2Ftracker.leechers-paradise.org%3A6969&amp;tr=udp%3A%2F%2Fzer0day.ch%3A1337&amp;tr=udp%3A%2F%2Fopen.demonii.com%3A1337&amp;tr=udp%3A%2F%2Ftracker.coppersurfer.tk%3A6969&amp;tr=udp%3A%2F%2Fexodus.desync.com%3A6969","seeders":14,"leechers":2,"uploader":"Bullrout","files":1,"time":1467051519,"description":"Love Child - S03E02\r\n\r\n\r\nShirley fights to keep her job as Maggie learns the truth of their relationship, Joan uncovers McNaughton's part in Greg Mathieson's death, and Viv loses her twins all over again.\r\n\r\nComplete name : Love Child - S03E02.mp4\r\nFormat : MPEG-4\r\nFormat profile : Base Media / Version 2\r\nCodec ID : mp42 (mp42/isom/avc1)\r\nFile size : 366 MiB\r\nDuration : 46mn 22s\r\nOverall bit rate mode : Variable\r\nOverall bit rate : 1 104 Kbps\r\n\r\nVideo\r\nID : 2\r\nFormat : AVC\r\nFormat/Info : Advanced Video Codec\r\nFormat profile :   \r\nFormat settings, CABAC : Yes\r\nFormat settings, ReFrames : 3 frames\r\nCodec ID : avc1\r\nCodec ID/Info : Advanced Video Coding\r\nDuration : 46mn 22s\r\nBit rate mode : Variable\r\nBit rate : 973 Kbps\r\nMaximum bit rate : 1 000 Kbps\r\nWidth : 720 pixels\r\nHeight : 404 pixels\r\nDisplay aspect ratio : 16:9\r\nOriginal display aspect ratio : 16:9\r\nFrame rate mode : Constant\r\nFrame rate : 25.000 fps\r\nStandard : PAL\r\nColor space : YUV\r\nChroma subsampling : 4:2:0\r\nBit depth : 8 bits\r\nScan type : Progressive\r\nBits/(Pixel*Frame) : 0.134\r\nStream size : 323 MiB (88%)\r\nWriting library : x264 core 112\r\nColor range : Limited\r\nColor primaries : BT.601 PAL\r\nTransfer characteristics : BT.470 System B, BT.470 System G\r\nMatrix coefficients : BT.601\r\n\r\nAudio\r\nID : 1\r\nFormat : AAC\r\nFormat/Info : Advanced Audio Codec\r\nFormat profile : LC\r\nCodec ID : 40\r\nDuration : 46mn 22s\r\nBit rate mode : Variable\r\nBit rate : 128 Kbps\r\nMaximum bit rate : 576 Kbps\r\nChannel(s) : 2 channels\r\nChannel positions : Front: L R\r\nSampling rate : 48.0 KHz\r\nFrame rate : 46.875 fps (1024 spf)\r\nCompression mode : Lossy\r\nStream size : 42.5 MiB (12%)","torrent":{"xt":"urn:btih:5b16c03120024439d196b36fabe5f037d532cf56","amp;dn":"Love+Child+-+S03E02","amp;tr":["udp%3A%2F%2Ftracker.leechers-paradise.org%3A6969","udp%3A%2F%2Fzer0day.ch%3A1337","udp%3A%2F%2Fopen.demonii.com%3A1337","udp%3A%2F%2Ftracker.coppersurfer.tk%3A6969","udp%3A%2F%2Fexodus.desync.com%3A6969"],"infoHash":"5b16c03120024439d196b36fabe5f037d532cf56","infoHashBuffer":{"type":"Buffer","data":[91,22,192,49,32,2,68,57,209,150,179,111,171,229,240,55,213,50,207,86]},"announce":[],"urlList":[]}}